<svg width="700pt" height="700pt" version="1.1" viewBox="0 0 700 700" xmlns="http://www.w3.org/2000/svg">
 <path d="m623.99 249.32c-20.238-89.355-79.082-148.48-143.09-176.77 79.598 70.125 152.92 205.84 61.699 329.48-37.844 51.316-113.52 71.598-145.22 57.289 0 0 49.016-10.41 79.5-37.066 59.281-56.117 79.094-146.52 31.641-228.71-6.7812-11.746-14.688-22.441-23.5-32.023-0.125-0.14844-0.23047-0.29297-0.35547-0.43359-33.348-39.781-79.148-63.523-128.36-70.812-63.891-12.004-146.27 3.6055-207.97 60.66-67.27 62.215-89.051 142.74-81.535 212.33 20.922-104.01 101.79-235.36 254.48-218.2 63.371 7.1328 118.75 62.523 122.23 97.141 0 0-36.938-57.969-128.55-57.969-1.6797 0.027343-5.2305 0.16797-5.3281 0.16797-0.38672 0.019532-0.77734 0.042969-1.168 0.070313-59.57 2.332-117.48 33.488-152.81 94.684-6.7812 11.738-12.09 23.934-15.988 36.363-0.070312 0.16797-0.13281 0.35156-0.19531 0.51953-17.773 48.777-15.434 100.31 2.8477 146.57 21.555 61.34 76.273 124.89 156.53 149.78 87.516 27.145 168.14 5.7383 224.64-35.555-100.54 33.859-254.72 29.512-316.21-111.29-25.516-58.449-5.2422-134.11 23.008-154.43 0 0-31.738 60.969 14.086 140.31 31.375 52.387 88.32 88.605 160.64 88.605 3.4844 0 31.414-2.1758 41.48-4.4297 0.1875-0.019531 0.38672-0.054687 0.55859-0.078124 51.121-9.0039 94.586-36.793 125.5-75.754 42.352-49.324 70.023-128.5 51.445-210.45z"/>
</svg>
