<svg xmlns="http://www.w3.org/2000/svg" xmlns:xlink="http://www.w3.org/1999/xlink" version="1.1" width="700pt" height="700pt" viewBox="0 0 640 480" xml:space="preserve">
    <g transform="matrix(0.2,0,0,0.2,320.2,240.3)" id="surface1"  >
        <linearGradient id="SVGID_842" gradientUnits="userSpaceOnUse" gradientTransform="matrix(1 0 0 1 336.27 373.01)"  x1="58.062175474735945" y1="993.2217259369918" x2="2845.0465982620613" y2="1844.554633882985">
            <stop offset="0%" style="stop-color: rgba(182, 41, 204, 1)"/>
            <stop offset="100%" style="stop-color: rgba(21, 207, 241, 1)"/>
        </linearGradient>
        <path style="fill: url(#SVGID_842); fill-rule: nonzero; stroke: none; stroke-width: 1; stroke-linecap: butt; stroke-linejoin: miter; stroke-dasharray: none; stroke-dashoffset: 0; stroke-miterlimit: 4; opacity: 1"  transform="translate(-1787.8,-1791.9)" d="M 3209.1 1281.9 C 3105 822.4 2802.4 518.5 2473.2 373 C 2882.6 733.6 3259.6 1431.3 2790.5 2067 C 2595.9 2330.8 2206.7 2435.1 2043.7 2361.6 C 2043.7 2361.6 2295.7 2308 2452.5 2171 C 2757.4 1882.5 2859.3 1417.7 2615.2 995.1 C 2580.4 934.7 2539.7 879.7 2494.4 830.4 C 2493.7 829.7 2493.2 828.9 2492.6 828.2 C 2321.1 623.7 2085.5 501.6 1832.4 464.1 C 1503.8 402.4 1080.2 482.7 762.9 776 C 416.9 1095.9 304.9 1509.9 343.5 1867.7 C 451.1 1332.9 867 657.6 1652.3 745.8 C 1978.2 782.5 2263 1067.3 2280.9 1245.3 C 2280.9 1245.3 2090.9 947.2 1619.8 947.2 C 1611.2 947.4 1592.9 948.1 1592.4 948.1 C 1590.4 948.2 1588.4 948.3 1586.4 948.5 C 1280 960.5 982.2 1120.6 800.5 1435.3 C 765.6 1495.6 738.3 1558.3 718.3 1622.2 C 717.9 1623.1 717.6 1624 717.3 1624.9 C 625.9 1875.7 637.9 2140.6 731.9 2378.5 C 842.8 2693.9 1124.2 3020.6 1536.9 3148.6 C 1987 3288.1 2401.7 3178.1 2692.2 2965.8 C 2175.2 3139.8 1382.2 3117.5 1066 2393.6 C 934.8 2093.1 1039 1704.1 1184.3 1599.6 C 1184.3 1599.6 1021.1 1913.1 1256.8 2321 C 1418.1 2590.3 1711 2776.5 2082.9 2776.5 C 2100.8 2776.5 2244.5 2765.3 2296.2 2753.8 C 2297.2 2753.7 2298.2 2753.5 2299.1 2753.4 C 2562 2707.1 2785.6 2564.2 2944.5 2363.9 C 3162.4 2110.3 3304.7 1703.2 3209.1 1281.9 Z M 3209.1 1281.9" stroke-linecap="round" />
    </g>
</svg>
